<?xml version="1.0" encoding="UTF-8"?>
<svg xmlns="http://www.w3.org/2000/svg" version="1.1" viewBox="0 0 100 100">
  <defs>
    <style>
      .cls-1 {
        fill: #2d2b55;
        stroke: #2d2b55;
        stroke-width: 2px;
      }
    </style>
  </defs>
  <!-- Generator: Adobe Illustrator 28.6.0, SVG Export Plug-In . SVG Version: 1.2.0 Build 709)  -->
  <g>
    <g id="Layer_1">
      <path class="cls-1" d="M88.5,59.9c-1.7-1.4-4.3-1.1-5.6.7-7.4,9.4-18.2,15.2-30,16.3V30.4c5.2-1.7,9-6.6,9-12.4s-5.8-13-13-13-13,5.8-13,13,3.8,10.7,9,12.4v46.4c-11.8-1.1-22.5-6.9-30-16.3-1.4-1.7-3.9-2-5.6-.7-1.7,1.4-2,3.9-.7,5.6,9,11.4,22,18.3,36.2,19.3v5.2c0,2.2,1.8,4,4,4s4-1.8,4-4v-5.2c14.2-1.1,27.3-8,36.2-19.3,1.4-1.7,1.1-4.2-.7-5.6ZM48.9,13c2.8,0,5,2.2,5,5s-2.2,5-5,5-5-2.2-5-5,2.2-5,5-5Z"/>
    </g>
  </g>
</svg>