<svg width="71" height="71" viewBox="0 0 71 71" fill="none" xmlns="http://www.w3.org/2000/svg">
<g clip-path="url(#clip0_103_767)">
<path opacity="0.5" d="M34.375 13.6081L59.4889 0L44.8409 25.5063L34.375 13.6081Z" fill="#00E2B7"/>
<path d="M0 15.0239L34.4022 13.5859L71 55.2099L27.9312 55.0822L0 15.0239Z" fill="#00E2B7"/>
<path d="M0 15.1516L12.3258 70.9611L27.9312 55.0489L0 15.1516Z" fill="url(#paint0_linear_103_767)"/>
<path d="M0 15.1518L27.9312 55.0824L59.4886 0.0168457L0 15.1518Z" fill="url(#paint1_linear_103_767)"/>
<path d="M12.332 71.0001L27.9319 55.0823L70.8686 55.3432L12.332 71.0001Z" fill="url(#paint2_linear_103_767)"/>
<path d="M59.489 0.0166016L70.8684 55.3431L27.9316 55.0821L59.489 0.0166016Z" fill="url(#paint3_linear_103_767)"/>
</g>
<defs>
<linearGradient id="paint0_linear_103_767" x1="-5.43656" y1="18.3218" x2="21.9568" y2="65.3466" gradientUnits="userSpaceOnUse">
<stop stop-color="white"/>
<stop offset="1" stop-color="#00E2B7" stop-opacity="0.7"/>
</linearGradient>
<linearGradient id="paint1_linear_103_767" x1="12.0122" y1="0.710855" x2="48.1541" y2="30.7676" gradientUnits="userSpaceOnUse">
<stop stop-color="white"/>
<stop offset="1" stop-color="#00E2B7" stop-opacity="0.7"/>
</linearGradient>
<linearGradient id="paint2_linear_103_767" x1="70.8686" y1="63.0384" x2="12.332" y2="63.0384" gradientUnits="userSpaceOnUse">
<stop stop-color="white"/>
<stop offset="1" stop-color="#00E2B7" stop-opacity="0.7"/>
</linearGradient>
<linearGradient id="paint3_linear_103_767" x1="23.5626" y1="42.9619" x2="69.0589" y2="26.5508" gradientUnits="userSpaceOnUse">
<stop stop-color="white"/>
<stop offset="1" stop-color="#00E2B7" stop-opacity="0.7"/>
</linearGradient>
<clipPath id="clip0_103_767">
<rect width="71" height="71" fill="white"/>
</clipPath>
</defs>
</svg>
