<?xml version="1.0" encoding="UTF-8"?>
<svg xmlns="http://www.w3.org/2000/svg" version="1.1" viewBox="0 0 165 26">
  <defs>
    <style>
      .cls-1 {
        fill: #fff;
        fill-rule: evenodd;
      }
    </style>
  </defs>
  <!-- Generator: Adobe Illustrator 28.6.0, SVG Export Plug-In . SVG Version: 1.2.0 Build 709)  -->
  <g>
    <g id="Layer_1">
      <path class="cls-1" d="M157.9,12.6c.2-1.7-.4-2.4-2-2.5-1.7,0-3.4.5-4.7,1.5l-.8.6-2.9-4.2c1.5-1.2,3.3-2.1,5.2-2.4,2.1-.5,4.3-.5,6.4-.2,3.1.5,4.9,2.4,5.1,5.6.2,2,0,4.1.1,6.2,0,2.1,0,4.2.2,6.2,0,.7.3,1.3.5,2-1.9,0-3.8,0-5.7,0-.2,0-.4-.2-.5-.5-.2-.5-.3-1.1-.5-1.7-.8,1.2-1.7,2.1-2.9,2.5-2.5.9-5.7,0-7.1-1.8-3-3.7-1.4-8.7,3.2-10,1.8-.5,3.7-.8,5.6-1.1.3,0,.6-.1.9-.2ZM157.9,16.6c-1.4.4-2.8.7-4,1.1-.9.3-1.2,1.3-1,2.3.2.9.9,1.5,1.8,1.4.7,0,1.4-.3,2-.8,1.2-1,1.3-2.4,1.2-4h0ZM76.5,12.6c.2-1.7-.4-2.5-2.1-2.5-1.7,0-3.3.5-4.6,1.5-.3.2-.5.4-.8.7l-2.9-4.2c1.4-1.1,3-1.9,4.7-2.3,2.2-.6,4.6-.7,6.9-.3,3.2.5,5.1,2.6,5.2,6,.1,2.7,0,5.5.1,8.2,0,1.9-.1,3.9.7,5.8-2,0-3.9,0-5.8,0-.2,0-.4-.3-.5-.5-.2-.5-.3-1.1-.4-1.7,0,0-.1,0-.2.1-1.9,3.7-8,3.3-10.2.4-2.6-3.6-1.1-8.4,3.2-9.7,1.9-.6,3.8-.8,5.8-1.2.3,0,.6-.1.9-.2ZM76.6,16.6c-1.4.3-2.7.6-3.9,1-1,.3-1.4,1.2-1.2,2.2.1.9.9,1.6,1.8,1.6.8,0,1.6-.3,2.1-.8,1.1-1.1,1.2-2.4,1.1-4ZM38.9,12.6c.1-1.8-.5-2.5-2.1-2.5-1.7,0-3.4.5-4.8,1.6l-.7.6-2.9-4.2c1-.9,2.2-1.6,3.5-2,2.6-.9,5.4-1.1,8.1-.7,3.2.5,5.1,2.6,5.2,5.9.1,2.2,0,4.4.1,6.6,0,2.5-.3,5,.7,7.5-2,0-3.8,0-5.7,0-.2,0-.4-.2-.5-.4-.2-.6-.3-1.1-.5-1.8-.8,1.3-1.8,2.2-3.1,2.6-2.8.8-5.6,0-7.2-2.2-1.9-2.7-1.4-6.5,1.2-8.5.4-.3.7-.5,1.1-.7,2.1-.9,4.4-1.1,6.7-1.5l1-.2ZM38.9,16.6c-1.4.3-2.6.6-3.9,1-1,.4-1.4,1.4-1.1,2.4.3,1,1,1.4,2.1,1.3.9,0,1.8-.6,2.2-1.4.6-1,.7-2.1.6-3.4h0ZM117.2,17.1h-12.5c0,1.7.9,3.2,2.4,3.9,1.8.7,3.5,0,5-1.9l2.2,1.3,2.3,1.3c-1,1.7-2.6,3-4.4,3.6-3.8,1.3-7.4,1.1-10.7-1.4-1.9-1.4-2.9-3.5-3.3-5.8-.5-2.8-.2-5.5,1.1-8,1.6-2.9,4.1-4.4,7.2-4.8,2.4-.2,4.7.1,6.7,1.6,2.2,1.6,3.2,4,3.6,6.6.2,1.1.2,2.3.2,3.6ZM110.6,13.4c.1-2.1-1-3.5-2.9-3.5-1.8,0-3.2,1.5-3.1,3.5h6ZM47.5,23.5c2.7,2,5.8,2.6,9,2.4,1.9,0,3.8-.7,5.4-1.9,2.9-2.3,3.4-7.5-.7-9.6-.9-.4-1.9-.8-2.8-1.2-1.1-.4-2.2-.8-3.4-1.3-.6-.2-1-.7-.8-1.3.2-.7.7-.8,1.2-.8.5,0,1.1,0,1.6.1,1.4.5,2.8,1,4.2,1.5l2.7-4c-2.1-1.5-4.6-2.3-7.2-2.3-2,0-4,.1-5.9,1.1-3.3,1.8-4.2,6.3-1.8,9.1,1,1.2,2.4,1.7,3.8,2.2,1.3.4,2.6.9,3.9,1.3.6.2,1,.6.9,1.3,0,.7-.6.9-1.2,1-2.2.4-4.1-.4-5.8-1.6-.3-.2-.5-.4-.8-.6l-2.8,4.3c.1,0,.2.2.4.3ZM12.4,20.9c-2.8.7-3.1-.4-3.2-2.4,0-2.6,0-5.2,0-7.7s0-.5,0-.8h3.9v-4.2h-3.9V0h-3.9c-.6,3.1-1.2,6.1-5.3,5.7v4.2h3v1c0,3.3,0,6.7,0,10,0,2.7,1.4,4.3,3.7,4.9,2,.4,4,.3,5.9-.3.4-.1.5-.3.5-.7-.1-1.3-.2-2.6-.4-4-.2,0-.3.1-.4.1h0ZM96.7,20.9c-2.8.7-3.1-.4-3.2-2.4,0-2.6,0-5.2,0-7.7s0-.5,0-.8h3.9v-4.2h-3.9V0h-3.9c-.6,3.1-1.2,6.1-5.3,5.7v4.2h3v1c0,3.3,0,6.7,0,10,0,2.7,1.4,4.3,3.7,4.9,2,.4,4,.3,5.9-.3.4-.1.5-.3.5-.7-.1-1.3-.2-2.6-.4-4-.2,0-.3.1-.4.1h0ZM143.2,5.7c-1.6.6-2.6,2-3.6,3.6l-.5-3.5h-5.6v19.5h6.2v-.9c0-2.8,0-5.6,0-8.4,0-3.2,1.5-4.5,4.5-4.5.6,0,1.2,0,1.9,0v-6.6c-1,.2-2,.3-2.9.7ZM21,16.5c0-.6,0-1.2.2-1.8.3-1.8,1.3-2.8,3.1-3,1,0,2.1,0,3.1,0v-6.4c-3.1-.2-5,1.5-6.6,4.1-.1-1.2-.2-2.1-.4-3,0-.2-.3-.5-.4-.5-1.7,0-3.5,0-5.2,0v19.6h6.2c0-3,0-5.9,0-8.9ZM124.9,7.5c-.1-1.2-.8-1.8-2-1.8h-3.9v19.6h6.2v-.8c0-2.9,0-5.9,0-8.8,0-2.7,1.5-4.1,4.2-4.2.7,0,1.4,0,2.2,0v-6.3c-2.3-.4-4.2.7-6.6,4,0-.7-.2-1.2-.2-1.7Z"/>
    </g>
  </g>
</svg>