<svg width="165" height="26" viewBox="0 0 165 26" fill="none" xmlns="http://www.w3.org/2000/svg">
<path fill-rule="evenodd" clip-rule="evenodd" d="M157.9 12.6001C158.102 10.8683 157.529 10.1505 155.879 10.0583C154.184 9.97931 152.515 10.5259 151.179 11.5992L150.349 12.2412L147.408 8.01045C148.936 6.77579 150.733 5.93622 152.646 5.56418C154.745 5.09337 156.907 5.02752 159.028 5.37651C162.11 5.9033 163.891 7.75035 164.173 10.9736C164.353 13.0116 164.273 15.0727 164.321 17.1238C164.369 19.175 164.398 21.2756 164.51 23.3465C164.545 24.005 164.83 24.6437 165 25.3483C163.078 25.3483 161.2 25.3483 159.307 25.3285C159.073 25.266 158.881 25.0915 158.791 24.861C158.599 24.3277 158.49 23.7614 158.326 23.1193C157.561 24.298 156.657 25.2001 155.379 25.6347C152.861 26.4941 149.727 25.7335 148.244 23.8832C145.29 20.2023 146.847 15.1747 151.419 13.8742C153.239 13.3573 155.135 13.117 157 12.7515C157.308 12.7021 157.58 12.6495 157.9 12.6001ZM157.929 16.5707C156.526 16.9592 155.171 17.2292 153.889 17.7198C152.976 18.049 152.685 18.9874 152.928 19.9718C153.146 20.8542 153.825 21.483 154.741 21.3711C155.456 21.3019 156.141 21.0418 156.731 20.6204C157.948 19.6557 158.035 18.2169 157.926 16.5707H157.929ZM76.5297 12.5869C76.7219 10.865 76.0972 10.1242 74.4312 10.0517C72.762 9.99248 71.1216 10.5357 69.8017 11.5893C69.5485 11.7803 69.3019 11.9811 68.9687 12.2478L66.0211 8.00715C67.4116 6.88444 69.0263 6.09097 70.75 5.686C72.9991 5.10324 75.3379 4.99789 77.6254 5.37651C80.8292 5.92305 82.6874 7.97094 82.8348 11.3358C82.9565 14.0586 82.9277 16.788 82.9533 19.5141C82.9726 21.46 82.8188 23.4255 83.6998 25.3582C81.6846 25.3582 79.7719 25.3582 77.8593 25.3384C77.6991 25.3384 77.4652 25.0717 77.4011 24.8841C77.2217 24.3441 77.1096 23.7778 76.9654 23.1951C76.9077 23.2313 76.8308 23.251 76.8052 23.2971C74.8829 26.9715 68.8245 26.6422 66.6523 23.656C64.0444 20.0739 65.5406 15.2603 69.8561 13.9598C71.7368 13.3935 73.7007 13.1499 75.623 12.7614C75.9306 12.6956 76.2509 12.6495 76.5297 12.5869ZM76.5713 16.6004C75.1969 16.9494 73.9057 17.1963 72.6723 17.6144C71.7111 17.9437 71.3107 18.859 71.5061 19.8335C71.6342 20.7686 72.432 21.4501 73.3515 21.404C74.1364 21.4336 74.9021 21.1307 75.466 20.5677C76.5265 19.5109 76.6322 18.1741 76.5713 16.6004ZM38.9136 12.5902C39.0193 10.8156 38.4459 10.1341 36.8215 10.055C35.1011 9.98589 33.4127 10.5555 32.067 11.6617L31.3174 12.2346L28.3859 8.01374C29.4207 7.13137 30.6093 6.45972 31.8908 6.03829C34.4859 5.14275 37.254 4.90899 39.9549 5.36005C43.1779 5.89013 45.0169 7.93143 45.1931 11.2864C45.3084 13.4824 45.2604 15.6884 45.3181 17.891C45.3821 20.3735 44.9977 22.902 46.0453 25.3417C44.0782 25.3417 42.2007 25.3417 40.3297 25.322C40.0926 25.2759 39.8876 25.1178 39.7818 24.8939C39.58 24.3408 39.4615 23.7515 39.2981 23.0963C38.5195 24.3639 37.5328 25.2726 36.1583 25.6841C33.3934 26.5072 30.5132 25.638 28.9209 23.4716C26.9762 20.7751 27.5304 16.9691 30.1544 14.9706C30.5068 14.7039 30.8848 14.4767 31.2853 14.2957C33.4191 13.3606 35.713 13.173 37.9589 12.768L38.9136 12.5902ZM38.9136 16.6036C37.5616 16.9329 36.2705 17.1831 35.0402 17.5914C33.9925 17.9535 33.6081 18.9544 33.9092 20.0212C34.1848 21.0089 34.9569 21.4665 36.0526 21.3678C36.9689 21.3052 37.8051 20.7949 38.2953 19.9948C38.9328 19.0302 38.9969 17.9173 38.92 16.6004H38.9136V16.6036ZM117.164 17.0613H104.701C104.627 18.7536 105.608 20.3076 107.139 20.9332C108.962 21.6147 110.622 20.999 112.147 19.0104L114.389 20.3043L116.706 21.6509C115.703 23.3531 114.133 24.624 112.288 25.2265C108.52 26.4809 104.883 26.3426 101.593 23.8206C99.7093 22.3753 98.7322 20.3241 98.3221 17.9766C97.8383 15.1879 98.085 12.4881 99.4402 9.97602C101.026 7.05235 103.499 5.54443 106.687 5.22506C109.084 4.98801 111.365 5.34688 113.351 6.84493C115.523 8.49114 116.555 10.8156 116.923 13.4857C117.09 14.6249 117.09 15.8102 117.164 17.0613ZM110.644 13.41C110.788 11.316 109.6 9.897 107.78 9.87724C105.96 9.85749 104.576 11.3786 104.666 13.41H110.644ZM47.4934 23.4848C50.2007 25.4602 53.2603 26.0759 56.4994 25.9311C58.4377 25.8948 60.3183 25.2331 61.8722 24.0379C64.7909 21.7332 65.2234 16.5444 61.1321 14.4208C60.2126 13.973 59.2707 13.5746 58.3095 13.2256C57.1978 12.791 56.0669 12.419 54.9487 11.9745C54.3881 11.7506 53.9876 11.316 54.1382 10.6378C54.2887 9.95956 54.8014 9.88054 55.3236 9.87395C55.8618 9.82786 56.4001 9.86737 56.9255 9.99248C58.3224 10.4468 59.6904 10.9802 61.1674 11.5399L63.8618 7.50341C61.7472 6.03829 59.2611 5.23823 56.7108 5.19872C54.6668 5.12958 52.6708 5.32054 50.8286 6.32802C47.5063 8.14873 46.6316 12.6659 49.0729 15.4019C50.1142 16.5674 51.4982 17.1206 52.9175 17.5848C54.2375 18.0128 55.5607 18.4441 56.8614 18.9248C57.4125 19.1289 57.8226 19.5471 57.7553 20.2418C57.688 20.9365 57.153 21.1044 56.6019 21.1999C54.4137 21.5752 52.5363 20.7751 50.7774 19.5537C50.505 19.3627 50.2455 19.152 49.9572 18.9347L47.125 23.2148C47.266 23.3004 47.3749 23.3992 47.4934 23.4848ZM12.4052 20.8509C9.557 21.5324 9.25584 20.4986 9.23982 18.4112C9.2206 15.8299 9.23982 13.252 9.23982 10.6707C9.23982 10.4271 9.26225 10.1867 9.27827 9.85091H13.1357V5.69259H9.19176V0H5.26067C4.68078 3.05536 4.04963 6.08109 0 5.71563V9.87395H3.02761V10.8288C3.02761 14.1607 3.02761 17.4926 3.08208 20.8212C3.13974 23.4815 4.43409 25.154 6.80171 25.7171C8.76245 26.1615 10.8065 26.0496 12.7096 25.3878C13.0748 25.2693 13.2222 25.108 13.1805 24.6997C13.0492 23.4091 12.9466 22.1119 12.8281 20.7192C12.6295 20.785 12.5205 20.8278 12.4052 20.8542V20.8509ZM96.6657 20.8509C93.8175 21.5324 93.5163 20.4986 93.5003 18.4112C93.4811 15.8299 93.5003 13.252 93.5003 10.6707C93.5003 10.4271 93.5227 10.1867 93.5388 9.85091H97.3962V5.69259H93.4619V0H89.5308C88.9509 3.05536 88.3197 6.08109 84.2797 5.71563V9.87395H87.3073V10.8288C87.3073 14.1607 87.3073 17.4926 87.3618 20.8212C87.4195 23.4815 88.7138 25.154 91.0814 25.7171C93.0422 26.1615 95.0862 26.0496 96.9893 25.3878C97.3545 25.2693 97.5019 25.108 97.4602 24.6997C97.3289 23.4091 97.2264 22.1119 97.1078 20.7192C96.8996 20.785 96.7906 20.8278 96.6753 20.8542H96.6657V20.8509ZM143.211 5.73539C141.583 6.33461 140.564 7.68779 139.571 9.30436L139.104 5.78807H133.506V25.3088H139.744V24.4429C139.744 21.641 139.709 18.8458 139.776 16.0341C139.85 12.8701 141.231 11.5333 144.281 11.5366C144.899 11.5366 145.518 11.5992 146.146 11.6321V5.04727C145.117 5.26786 144.124 5.3831 143.211 5.73539ZM20.9562 16.472C20.9562 15.8727 21.0107 15.2735 21.1164 14.6842C21.4368 12.8898 22.4203 11.8692 24.176 11.6519C25.2205 11.5794 26.2681 11.5728 27.3126 11.6288V5.22506C24.2561 5.04398 22.2794 6.6836 20.7415 9.32083C20.5974 8.15531 20.5013 7.2071 20.3507 6.27205C20.3186 6.07121 20.0783 5.75514 19.9278 5.75185C18.2009 5.71234 16.4773 5.73539 14.7087 5.73539V25.322H20.9498C20.9498 22.3259 20.9402 19.3989 20.9562 16.472ZM124.904 7.49683C124.77 6.31595 124.118 5.72551 122.95 5.72551H119.086V25.3187H125.327V24.4758C125.327 21.5489 125.295 18.6186 125.372 15.6949C125.442 12.9458 126.846 11.5959 129.537 11.5366C130.258 11.5202 130.982 11.5366 131.735 11.5366V5.28103C129.466 4.87277 127.57 5.9922 125.135 9.23193C125.036 8.57674 124.949 8.04008 124.904 7.49683Z" fill="#2F295B"/>
</svg>
